<svg xmlns="http://www.w3.org/2000/svg" id="Layer_1" data-name="Layer 1" viewBox="186.61 202.9 224.11 361.56"><defs><style>.cls-1{fill:#3e1f0d;}.cls-1,.cls-2,.cls-3,.cls-4,.cls-5,.cls-6,.cls-8{fill-rule:evenodd;}.cls-2{fill:#f29542;}.cls-3{fill:#ed8205;}.cls-4{fill:#986462;}.cls-5{fill:#613d3b;}.cls-6,.cls-7{fill:#fff;}.cls-8{fill:#f4b476;}</style></defs><path class="cls-1" d="M297.7,564.46c61.19,0,111.09-7.94,111.09-17.68s-49.9-17.67-111.09-17.67-111.09,7.94-111.09,17.67S236.51,564.46,297.7,564.46Z"/><path class="cls-1" d="M286.22,528.77l0,.09c-.13.32-.26.65-.4,1a11.1,11.1,0,0,0-1.08,3.2c-.4,3.18,0,5.7-1.51,8.85-1.95,4.16-5.82,5.84-10.07,6.79-3.92.87-7.79,1.32-11.7,2.42a116.17,116.17,0,0,0-13,4.83c-2.83,1.17-6.74,3-9.81,3a7.46,7.46,0,0,1-6.62-3.65,10.25,10.25,0,0,1-5.63-5.2,11.16,11.16,0,0,1-1-3.77,9,9,0,0,1-2.41-6.4,16.68,16.68,0,0,1,1.66-7.39,12.62,12.62,0,0,1,6.46-6,15.54,15.54,0,0,1,9.76-.62c.89.21,1.78.47,2.66.77,1.85-.54,3.78-.09,5.68,0,.66,0,1.33.06,2,.07a45.77,45.77,0,0,1-3.91-2.8A92.16,92.16,0,0,1,226,500.35c-6.57-10.92-8.93-22.73-9.7-35.31-.95-15.42.41-31.41,2.78-46.65,1.23-7.88,2.78-16.07,4.69-24.19-5.51-3.21-9.19-8.43-12.1-14.14-4.22-8.26-8-19.28-10.32-28.26a40.13,40.13,0,0,1-1.44-7.6,10.23,10.23,0,0,1,.32-3.28l-.27-.28a17,17,0,0,1-3.67-7c-.53-1.89-.78-3.74-1.15-5.65a22.67,22.67,0,0,1-3.44-5.8,24.32,24.32,0,0,1-1.6-8.29,10.55,10.55,0,0,1,3.06-8.14,11,11,0,0,1,2.84-1.89,15.63,15.63,0,0,1,.46-1.82,11.21,11.21,0,0,1,5.26-6.58,10.49,10.49,0,0,1,8.22-.81,8.13,8.13,0,0,1,1.46.67,13.69,13.69,0,0,1,5.14-3.94A12.26,12.26,0,0,1,226,291a10.5,10.5,0,0,1,5.41,5.29,9.82,9.82,0,0,1,1.14,5.77,47.31,47.31,0,0,1-1.48,5.12c-.86,3.16-1.65,6.52-2.26,9.79a15,15,0,0,1,1.82-.69,10.51,10.51,0,0,1,7.84.68c-.46-1.2-.86-2.43-1.24-3.64a163,163,0,0,1-6.28-29.1,110.78,110.78,0,0,1,0-26.62c.82-6.12,2.09-9.31,6.61-13.47a69.16,69.16,0,0,1,15-10.44c6.34-3.2,13.24-5.19,20.11-6.91,2.93-.73,5.9-1.38,8.86-2.05a6.58,6.58,0,0,1,1.8-1.64c2.2-1.36,6.58-2.55,9.11-3.23.84-.22,1.68-.44,2.52-.64a34.53,34.53,0,0,1,6.12-8.77,26,26,0,0,1,12.89-7.1,17,17,0,0,1,13.93,2.83,19.46,19.46,0,0,1,6.71,10.54,32.76,32.76,0,0,1,4.76-6.27,26,26,0,0,1,12.89-7.1,17,17,0,0,1,13.93,2.83c4.21,3.19,6.42,8.13,7.31,13.22a57.93,57.93,0,0,1,0,16.58,69.55,69.55,0,0,1-2.42,12,10.11,10.11,0,0,1-1.36,2.8c.29,1.65.55,3.26.79,4.78,2.27,14.5,3.8,29.65,4.78,44.3.86,12.87,1,25.77,1.66,38.65q.54,10,1.29,20c4.11,5.2,8,10.68,12,15.83a125.7,125.7,0,0,0,10.95,12.19,37.68,37.68,0,0,1,7,8.74,21.32,21.32,0,0,1,2.52,8.77,6.35,6.35,0,0,1-3.92,6.13l-.46.16a28.42,28.42,0,0,1-5.65,10.23,59.71,59.71,0,0,1-6.92,6.82,16.64,16.64,0,0,1,1.92,2,12.44,12.44,0,0,1,2.68,6.16,9.91,9.91,0,0,1-1.56,6.78,13.11,13.11,0,0,1-4.62,4.2,11.41,11.41,0,0,1-2.51,1,2.69,2.69,0,0,1-.16.29,15.9,15.9,0,0,1-4.83,5.19,101.89,101.89,0,0,1-6,24.33,238.71,238.71,0,0,1-16.14,33.77c-2.92,5.13-6.41,11-10.45,15.54h0c1.9-.11,3.83-.56,5.68,0,.89-.3,1.78-.56,2.66-.77a15.54,15.54,0,0,1,9.76.62,12.58,12.58,0,0,1,6.46,6,16.54,16.54,0,0,1,1.66,7.39,9,9,0,0,1-2.4,6.4,11.17,11.17,0,0,1-1,3.77,10.26,10.26,0,0,1-5.62,5.2,7.48,7.48,0,0,1-6.63,3.65c-3.07,0-7-1.81-9.8-3a116.32,116.32,0,0,0-13-4.83c-3.9-1.1-7.78-1.55-11.7-2.42-4.25-.95-8.11-2.63-10.06-6.79-1.48-3.15-1.12-5.67-1.51-8.85,0-.08,0-.17,0-.25-6.47-2.19-10-7.19-14.27-12.59-2.83-3.57-5.75-7.27-8.77-10.93-.18,1.82-.39,3.64-.51,5.4-.35,5.39-.5,10.52-5.76,13.64-.29.17-.58.33-.88.47Zm-54-188a28.27,28.27,0,0,0,3.65,5.82,25.45,25.45,0,0,0,3.88,3.57,123.5,123.5,0,0,1,7.94-12.53c.76-1,1.5-2.08,2.3-3a15.57,15.57,0,0,1-1.18-1.26,11.22,11.22,0,0,1-2.88-8.07,9.23,9.23,0,0,1-2-.81,12.65,12.65,0,0,1,.26,2.54,11.69,11.69,0,0,1-4.14,9A37.91,37.91,0,0,1,232.18,340.76Z"/><path class="cls-2" d="M257.67,336.63c1.31.29,3.41.94,6.12,1.69a49.2,49.2,0,0,0,10.27,1.87,59,59,0,0,0,13.25-.7c3.88-.7,6.5-1.82,9-2.15s4.89.14,10,.44a88.42,88.42,0,0,0,20.08-.84,55.83,55.83,0,0,0,17.86-6.71A25.25,25.25,0,0,0,355,319.41a80.61,80.61,0,0,0,7.08-20.76A73.26,73.26,0,0,0,363.41,280c-.31-4.89-1.1-8.21-1.2-6.8a115.33,115.33,0,0,1-.3,15.22,98.68,98.68,0,0,1-5.75,23.75c-2.69,6.8-5.82,11.15-11.13,14.73a50.37,50.37,0,0,1-20.25,7.43c-7.47,1.06-14.93.36-19.18.15s-5.31.07-4.06-.94,4.8-3.3,7.3-5.38,4-3.95,3.67-4.12-2.29,1.38-4.39,2.81-4.3,2.73-6.85,4.14a46.89,46.89,0,0,1-9.52,4.13A48.75,48.75,0,0,1,277,337.29a51.43,51.43,0,0,1-15.41-2.73c-4.16-1.48-6.73-3.25-8.25-5.05s-2-3.63-1-5.24,3.48-3,5.61-4.82a29.58,29.58,0,0,0,5-5.63c1.12-1.64,1.59-2.71,2.25-2.2s1.49,2.62,2.22,4.28,1.33,2.88,3.27,3.81,5.21,1.59,10.94,2.27,13.91,1.38,21.35-.05a40.11,40.11,0,0,0,18.95-9.32c4.84-4.35,7.84-9.5,10.1-13.75a102.23,102.23,0,0,0,4.59-9.59c.77-2,.77-2.52,1.26-2.38a7.52,7.52,0,0,1,2.48,2.2c1,1.21,2,2.8,1.82,1.87a15.36,15.36,0,0,0-4.35-6.71c-2.69-2.32-6.61-3.48-9.75-3.88s-5.47,0-5.3.25,2.83.47,5.19,1.06a17.36,17.36,0,0,1,5.49,2.33c1.08.78,1.17,1.34.93,3a26.52,26.52,0,0,1-3.22,9c-2.43,4.63-6.73,11.13-12.27,15.39s-12.32,6.26-20.27,7.1a91.89,91.89,0,0,1-22.24-.37c-5.16-.89-6.38-2.34-7.45-4.44a30.49,30.49,0,0,1-2.74-9.7,157.1,157.1,0,0,1-1.37-18.73c-.12-7,.13-14,.32-17.71s.3-4.17,1.62-4.86a58.48,58.48,0,0,1,7.54-2.83c3.7-1.2,8.56-2.68,11.46-3.75s3.83-1.75,4.07-1.57-.24,1.24-1,2.06-1.78,1.4-1.28,1.27a13.64,13.64,0,0,0,4.19-2.36,8.33,8.33,0,0,0,3.09-5.67,11.19,11.19,0,0,0-2.08-7,9.31,9.31,0,0,0-4.95-3.47c-1.71-.49-3.25-.39-6.33.17a116.09,116.09,0,0,1-11.63,1.89,36.22,36.22,0,0,1-9.24-.49c-2-.37-2.7-.7-4.11-.14a16.57,16.57,0,0,0-4.77,3.31,5.81,5.81,0,0,0-1.81,3.64,6.74,6.74,0,0,0,.87,4.05A21,21,0,0,0,255,257a47.68,47.68,0,0,0,5.27,4.12c1.3.9,1.74,1.18,2,1.56s.23.84.12,3a114.19,114.19,0,0,0,.05,12.9c.36,6.75,1.29,16.28.76,23.13s-2.55,11-5.45,13.8-6.69,4.18-9.17,4.09-3.64-1.68-5.65-8.11a168.59,168.59,0,0,1-6.06-28,107.81,107.81,0,0,1,0-25.15c.74-5.5,1.75-7.13,4.75-9.89A64.6,64.6,0,0,1,255.24,239c5.68-2.87,12-4.74,18.86-6.45s14.12-3.25,16.63-3.9.21-.42-1.69-.26-3.39.26-2.59-.24a43.47,43.47,0,0,1,7.53-2.54c3.64-1,7.85-1.87,11.26-2.74s6-1.7,8.77-1.89a22.72,22.72,0,0,1,8.24,1.11,37.17,37.17,0,0,1,6.2,2.62c1.08.59.8.59-.6.63s-3.93.1-6.37.36a53.12,53.12,0,0,0-6.66,1.15,11.86,11.86,0,0,0-3.09.95c.13.07,1.74-.23,5-.53s8.06-.61,12.86-.83,9.53-.37,13.31-.18A27.08,27.08,0,0,1,352,228a12.62,12.62,0,0,1,6.82,6.41c2.06,3.83,3.93,10,5.82,22s3.81,30.14,4.73,43.79.81,22.91,1.66,38.57c.28,5.24.66,11.2,1.12,17.5a70.3,70.3,0,0,0-6.65-6.8,20.28,20.28,0,0,0-10-5.05,21.14,21.14,0,0,0-11.25,1,18.71,18.71,0,0,0-8.41,7.11,27.32,27.32,0,0,0-4.44,10.85c-.61,3.76-.18,7.41,1.5,12.48a65.21,65.21,0,0,0,8.6,17c4,5.45,9,9.84,11.52,12.37s2.64,3.18,2.36,4-.94,1.94-1.89,4.42a53.76,53.76,0,0,0-2.67,9,15.28,15.28,0,0,0,0,5.1,6.3,6.3,0,0,1-.65,3.09,28.53,28.53,0,0,0-1.73,7.08,20.93,20.93,0,0,0,1.12,8.37,14,14,0,0,0,4.14,6.29,17.48,17.48,0,0,0,7.46,3.46,25.4,25.4,0,0,0,8.55.44,22.16,22.16,0,0,0,4.84-1.61c1.28-.42,2.58-.42,3.85-.75l.08,0A95.69,95.69,0,0,1,373,475.28a246.8,246.8,0,0,1-15.74,32.92c-4.89,8.58-8.11,12.92-10.7,15.56s-4.55,3.61-9.39,4.18-12.57.75-17.47-.38-6.94-3.56-12.9-11.06-15.79-20.05-25-28.29a72.42,72.42,0,0,0-21.57-13.67c-3.88-1.49-3.13-.56-.37,1.26a126,126,0,0,1,12.2,8.37,114.19,114.19,0,0,1,12,11.85c2.73,3.05,3.6,4.2,3.7,7s-.54,7.3-.8,11.23-.12,7.3-2.88,8.94-8.42,1.55-12.82,1.37-7.53-.44-10.14-.66-4.7-.39-10.16-4.65-14.29-12.61-19.92-22-8.07-19.74-8.86-32.62.05-28.25,2.72-45.38,7.16-36,12.54-50.12a120.22,120.22,0,0,1,15-28.09C255.85,336.4,256.36,336.33,257.67,336.63Z"/><path class="cls-3" d="M261.75,337.75l2,.57a49.2,49.2,0,0,0,10.27,1.87,59,59,0,0,0,13.25-.7c3.88-.7,6.5-1.82,9-2.15s4.89.14,10,.44a88.42,88.42,0,0,0,20.08-.84,55.83,55.83,0,0,0,17.86-6.71A25.25,25.25,0,0,0,355,319.41a80.61,80.61,0,0,0,7.08-20.76A73.26,73.26,0,0,0,363.41,280c-.31-4.89-1.1-8.21-1.2-6.8a115.33,115.33,0,0,1-.3,15.22,98.68,98.68,0,0,1-5.75,23.75c-2.69,6.8-5.82,11.15-11.13,14.73a50.37,50.37,0,0,1-20.25,7.43c-7.47,1.06-14.93.36-19.18.15s-5.31.07-4.06-.94,4.8-3.3,7.3-5.38a24.33,24.33,0,0,0,3-2.87c-.11.18-.24.4-.41.66a52.45,52.45,0,0,0-2.94,4.9c-.56,1.23-.11,1.34,3.11,1.11a54,54,0,0,0,15.14-3.07,35.87,35.87,0,0,0,16.59-13c4.88-6.8,8.86-16.48,10.82-23.85S356,279.68,356,274s0-12.07-.16-16.55-.42-7.11-.7-7.56-.56,1.29-1.09,3a14.79,14.79,0,0,1-2.24,4.67,14.36,14.36,0,0,1-2.4,2.28c-.33.32.14.21.79,0s1.46-.46,1.55-.26-.54.86-1.45,1.54a13.18,13.18,0,0,1-3.69,1.86,17.47,17.47,0,0,1-5.36.82,12.23,12.23,0,0,1-5.41-1.24,11.9,11.9,0,0,1-4.28-3.83,23.29,23.29,0,0,1-2.48-4.91c-.47-1.27-.57-1.79-.61-1.68a7.14,7.14,0,0,0,.08,1.66,14.1,14.1,0,0,1,.26,1.68,5.36,5.36,0,0,1-.64-1.72,9.43,9.43,0,0,1-.14-3.67,14.34,14.34,0,0,1,1.93-5.53,14.82,14.82,0,0,1,4.81-4.74,17.31,17.31,0,0,1,6.25-2.17,19.47,19.47,0,0,1,6.35-.1,9.09,9.09,0,0,1,3.95,1.84c.92.73,1.53,1.4,1.6,1s-.4-1.94,0-3,1.77-1.78,1.91-2.85-.91-2.51-3-3.86a24.77,24.77,0,0,0-8.55-3.32,57.12,57.12,0,0,0-9.75-.9,12.64,12.64,0,0,1-1.54-.09c3.92-.15,7.69-.22,10.81-.07A27.08,27.08,0,0,1,352,228a12.62,12.62,0,0,1,6.82,6.41c2.06,3.83,3.93,10,5.82,22s3.81,30.14,4.73,43.79.81,22.91,1.66,38.57c.28,5.24.66,11.2,1.12,17.5a70.3,70.3,0,0,0-6.65-6.8,20.28,20.28,0,0,0-10-5.05,21.14,21.14,0,0,0-11.25,1,16.4,16.4,0,0,0-4.11,2.4l-.27,0c-3.62.21-6.39,1.13-6.51.75s2.4-2.06,5.21-4.05,5.89-4.28,9.21-6.57,6.87-4.58,6.78-4.88-3.84,1.37-9.19,3.22a96.17,96.17,0,0,1-18.63,4.63,82,82,0,0,1-17.3-.14,94,94,0,0,0-14.7-.51c-4.38.35-8.12,1.47-13,1.7a43.54,43.54,0,0,1-15.39-2,21.93,21.93,0,0,1-4.55-2.22Zm49.19-12.82c-1.24.51-3.62,1.63-7.86,3.34a98.55,98.55,0,0,1-18,5.63,71.6,71.6,0,0,1-17.75.82c-2.8-.18-5.07-.44-6.51-.43l.72.27A51.43,51.43,0,0,0,277,337.29a48.75,48.75,0,0,0,14.79-2.13,46.89,46.89,0,0,0,9.52-4.13c2.55-1.41,4.74-2.71,6.85-4.14l2.82-2Zm21.51,49.67.4,1.25.39,1.14c-1.56-2.69-1.89-3.54-1-2.62l.21.23Zm13.79,24c2.63,2.81,5.15,5.09,6.73,6.65,2.55,2.52,2.64,3.18,2.36,4s-.94,1.94-1.89,4.42a53.76,53.76,0,0,0-2.67,9,15.28,15.28,0,0,0,0,5.1,6.3,6.3,0,0,1-.65,3.09,28.53,28.53,0,0,0-1.73,7.08,20.93,20.93,0,0,0,1.12,8.37,14,14,0,0,0,4.14,6.29,17.48,17.48,0,0,0,7.46,3.46,25.4,25.4,0,0,0,8.55.44,22.16,22.16,0,0,0,4.84-1.61c1.28-.42,2.58-.42,3.85-.75l.08,0A95.69,95.69,0,0,1,373,475.28a246.8,246.8,0,0,1-15.74,32.92c-4.89,8.58-8.11,12.92-10.7,15.56s-4.55,3.61-9.39,4.18-12.57.75-17.47-.38-6.94-3.56-12.9-11.06-15.79-20.05-25-28.29a72.42,72.42,0,0,0-21.57-13.67c-3.88-1.49-3.13-.56-.37,1.26a126,126,0,0,1,12.2,8.37,114.19,114.19,0,0,1,12,11.85c2.73,3.05,3.6,4.2,3.7,7s-.54,7.3-.8,11.23-.12,7.3-2.88,8.94-8.42,1.55-12.82,1.37-7.53-.44-10.14-.66a12.31,12.31,0,0,1-6.33-2l.37.11A54.7,54.7,0,0,0,269,523.58c4.65-.17,8-1.3,9.86-2.71s2.35-3.09,2.59-5.31a22,22,0,0,0-.52-7.83,22.62,22.62,0,0,0-2.76-6.41c-.51-.6,0,1.13.33,3.23s.66,4.58.42,4.82-1-1.78-1.75-4.12a29.1,29.1,0,0,0-4.86-9.51c-3.3-4.51-9.1-10.87-13.45-15.81s-7.24-8.44-6-9.6,6.76,0,13.16,2.94,13.75,7.67,17.07,9.4,2.62.47,1-1.5-4.28-4.63-3.18-4.23,5.91,3.86,11.53,8,12,9,18.86,11,14.14,1,19.24-1.92,8-7.9,10.31-15.15a123,123,0,0,0,4.46-21.13c.43-4.35-.46-3.51-2-2.83a10,10,0,0,1-5.58.82,8.79,8.79,0,0,1-4.63-3.09,18.66,18.66,0,0,1-2.55-3.55c-.19-.47.51.23,1.92,1.07a12.56,12.56,0,0,0,5.37,1.92,5.56,5.56,0,0,0,4.54-1.92,8.68,8.68,0,0,0,1.66-4.91c.21-2.05.21-4.53.56-7.48s1.05-6.35,1.59-8.9a36.59,36.59,0,0,0,1-6.57c.09-2.34-.1-5.33.18-8.09a44.65,44.65,0,0,1,1.43-6.85,5,5,0,0,0,.07-3.36A30.25,30.25,0,0,0,346.24,398.59Z"/><path class="cls-4" d="M251.79,325.92a3.31,3.31,0,0,1,.53-1.65c1-1.61,3.48-3,5.61-4.82a29.58,29.58,0,0,0,5-5.63c1.12-1.64,1.59-2.71,2.25-2.2s1.49,2.62,2.22,4.28,1.33,2.88,3.27,3.81,5.21,1.59,10.94,2.27,13.91,1.38,21.35-.05c.62-.12,1.23-.25,1.84-.4a7.47,7.47,0,0,1-3.77,2.61c-3.79,1.41-9.64,2-16.11,1.5s-13.58-2-18.82-2.43-8.6.09-10.66.9S252.66,326,252,326a.45.45,0,0,1-.16,0Zm54.37-8.64a24.58,24.58,0,0,0,0-3.47c-.38-6.68-2.85-17.81-4.19-27.77s-1.52-18.75-2.36-26.14-2.34-13.37-4.39-16.72-4.68-4.08-7.76-4.29a47.53,47.53,0,0,0-10.13.63c-3.48.53-6.89,1.3-10,1.52-2.32.17-4.47,0-6.36,0a36,36,0,0,0,8.88.42,116.09,116.09,0,0,0,11.63-1.89c3.08-.56,4.62-.66,6.33-.17a9.31,9.31,0,0,1,4.95,3.47,11.19,11.19,0,0,1,2.08,7,8.33,8.33,0,0,1-3.09,5.67,13.64,13.64,0,0,1-4.19,2.36c-.5.13.53-.45,1.28-1.27s1.21-1.87,1-2.06-1.17.49-4.07,1.57-7.76,2.55-11.46,3.75a58.48,58.48,0,0,0-7.54,2.83c-1.32.69-1.43,1.13-1.62,4.86s-.44,10.74-.32,17.71A157.1,157.1,0,0,0,266.2,304a30.49,30.49,0,0,0,2.74,9.7c1.07,2.1,2.29,3.55,7.45,4.44a91.89,91.89,0,0,0,22.24.37,59.11,59.11,0,0,0,7.53-1.26Zm-54.64-72.86a43.06,43.06,0,0,0-4.61,4,23.77,23.77,0,0,0-4.47,5.68c-.8,1.63-.68,2.82-.94,5.92a132.11,132.11,0,0,0-.76,15.75c.13,7.64,1,17.93,1.8,25.17s1.45,11.44,2.39,14.45a18.22,18.22,0,0,0,1.56,3.71,3.55,3.55,0,0,0,2,.63c2.48.09,6.27-1.31,9.17-4.09s4.91-7,5.45-13.8-.4-16.38-.76-23.13a114.19,114.19,0,0,1-.05-12.9c.11-2.21.11-2.68-.12-3s-.66-.66-2-1.56A47.68,47.68,0,0,1,255,257a21,21,0,0,1-4.15-5.18,6.74,6.74,0,0,1-.87-4.05A5.68,5.68,0,0,1,251.52,244.42Z"/><path class="cls-2" d="M365.41,246.15a69.29,69.29,0,0,0,2.18-10.88,53.37,53.37,0,0,0,.07-14.82c-.77-4.39-2.55-7.62-5.05-9.51a11.12,11.12,0,0,0-9.16-1.76,20.11,20.11,0,0,0-9.87,5.47,29.79,29.79,0,0,0-5.51,8.28c-.82,1.82-.54,1.82.91,1.88s4.07.18,5.46.08,1.55-.4,2-1.62a25.88,25.88,0,0,1,2.41-5.06,12,12,0,0,1,4.08-3.74,9.84,9.84,0,0,1,4.31-1.39,6.19,6.19,0,0,1,3.59.8A5.73,5.73,0,0,1,363,216.5a21.78,21.78,0,0,1,1.05,2.86,18,18,0,0,0-.77-1.73,5.78,5.78,0,0,0-5.06-3.23,6,6,0,0,0-3.65.91,15,15,0,0,0-4.3,4,14,14,0,0,0-2.24,4.64c-.19,1,.25.91,1.69,1.38a24.1,24.1,0,0,1,5.86,2.82,14.08,14.08,0,0,1,4.76,5.7,47.91,47.91,0,0,1,2.75,8.17c.62,2.34.95,3.72,1.22,4.63S364.81,248,365.41,246.15Z"/><path class="cls-1" d="M329.38,248.15a10.8,10.8,0,0,1,3-5.06,22.16,22.16,0,0,1,6.41-4.36,12.47,12.47,0,0,1,6.28-1.14,6.42,6.42,0,0,1,4.18,2.07,8.79,8.79,0,0,1,1.8,4.05,31.44,31.44,0,0,1,.61,3.93c.05.63-.07.16-.35-.49A21.65,21.65,0,0,0,350.2,245c-.4-.69-.75-1.23-.76-.91s.32,1.48.43,2.95a15.69,15.69,0,0,1-.43,5,11.68,11.68,0,0,1-2.5,5,9.14,9.14,0,0,1-5,2.61,10.14,10.14,0,0,1-6.9-.64,13.14,13.14,0,0,1-4.93-5.63A7.31,7.31,0,0,1,329.38,248.15Z"/><path class="cls-1" d="M334.85,261.05a23.62,23.62,0,0,0,5.85,2.08,11.11,11.11,0,0,0,5.29-.3c1.57-.46,3-1.21,3.36-1.2s-.25.78-1.59,1.61a11.58,11.58,0,0,1-5.65,1.76,12.29,12.29,0,0,1-6.48-1.95,9.35,9.35,0,0,1-3.1-3.1C332.39,259.54,333.27,260.24,334.85,261.05Z"/><path class="cls-5" d="M265.08,260.93c1.61-.46,4.49-1.28,7.11-2.08s5-1.6,6-2.06.72-.57.08-.61a16.86,16.86,0,0,1-2.52-.15c-.89-.16-1.68-.54-2.59-.62a5.64,5.64,0,0,0-2.92.61c-1,.48-1.92,1.23-2.15,1.21s.23-.78,1.31-1.84a35.19,35.19,0,0,1,4.51-3.64,27.08,27.08,0,0,1,5.36-3,13.69,13.69,0,0,1,4.75-1c1.2,0,1.86.37,2,1a3.34,3.34,0,0,1-.78,2.43,7.89,7.89,0,0,1-1.73,1.83c-.2.09.31-.62.65-1.27a3.92,3.92,0,0,0,.5-1.75c0-.49-.16-.87-.55-.73a4.79,4.79,0,0,0-1.62,1.8,19.65,19.65,0,0,0-1.59,3.19c-.3.83-.26,1.14.05,1.29s.86.15,2.1-.19a26.27,26.27,0,0,0,4.77-1.86,15.14,15.14,0,0,0,3.64-2.58,2.43,2.43,0,0,0,.84-2,6.92,6.92,0,0,0-.72-3.13,10.59,10.59,0,0,0-3.13-4c-1.33-.92-2.83-1.08-5.53-.65s-6.6,1.46-10.34,2a37.69,37.69,0,0,1-9.68.19c-2.36-.33-3.51-1-4.64-1.11a4.73,4.73,0,0,0-3.25,1,11.26,11.26,0,0,0-2.49,2.59,4.89,4.89,0,0,0-1.08,2.74,10.24,10.24,0,0,0,.41,2.91c.15.46.15,0,.31-.38a1,1,0,0,1,.93-.68,3.71,3.71,0,0,1,1.78.56,8.8,8.8,0,0,1,2.28,1.9c1,1.09,2.38,2.8,3.11,3.69s.79.95.46.66a23.66,23.66,0,0,0-2-1.6,19.49,19.49,0,0,0-2.83-1.69c-.82-.39-1.35-.51-1.61-.35s-.23.57.51,1.48a30.1,30.1,0,0,0,3.66,3.48,21.68,21.68,0,0,0,3.72,2.53C263.12,261.48,263.47,261.38,265.08,260.93Z"/><path class="cls-6" d="M331,251.72a9.13,9.13,0,0,0,2.17,3.7,7.69,7.69,0,0,0,3.9,2.22,9.69,9.69,0,0,0,5.12-.21,7.58,7.58,0,0,0,3.86-3,11.83,11.83,0,0,0,1.9-5.17,21.17,21.17,0,0,0-.1-6c-.29-1.72-.78-2.86-1.72-3.52s-2.31-.82-4.28-.28a21.62,21.62,0,0,0-6.5,3.25,12.86,12.86,0,0,0-4.1,4.72A5.91,5.91,0,0,0,331,251.72Z"/><path class="cls-2" d="M228.65,390.05l-.21-.09c-3.75-1.67-7.58-4.82-11.54-12.59s-8-20.13-9.86-27.08-1.4-8.45-.52-8.33,2.22,1.89,3,2.84,1.18,1.12,1.69.73a19.05,19.05,0,0,0,1.93-2.18c.74-.87,1.55-1.67,2.07-1.65s.77.85,1.25,2.08,1.19,2.88,1.78,3.27,1.05-.48,2.2-1.8a37,37,0,0,1,4-3.86c1-.79,1.14-.61,2,1.13a36.29,36.29,0,0,0,4.89,7.91,38.72,38.72,0,0,0,8.58,7.06c-1.43,2.9-3.21,6.67-4.82,10.8a139,139,0,0,0-5.36,17.16C229.36,387,229,388.52,228.65,390.05Z"/><path class="cls-3" d="M211.25,345.54h0a19.05,19.05,0,0,0,1.93-2.18c.74-.87,1.55-1.67,2.07-1.65s.77.85,1.25,2.08,1.19,2.88,1.78,3.27,1.05-.48,2.2-1.8a37,37,0,0,1,4-3.86c1-.79,1.14-.61,2,1.13a36.29,36.29,0,0,0,4.89,7.91,38.72,38.72,0,0,0,8.58,7.06c-1.43,2.9-3.21,6.67-4.82,10.8q-1,2.59-2,5.37a38.07,38.07,0,0,0,.06-5.91c-.3-3.15-1.43-4.67-3.3-7.16s-4.48-5.95-6.16-7.93-2.39-2.5-2.15-1.62,1.46,3.18,1.67,3.95-.58,0-1.56-1.17-2.13-2.85-3.2-4.4-2.07-3-2.74-3.93-1-1.27-1.54-1.07-1.28.95-2.06,1.14A1.87,1.87,0,0,1,211.25,345.54Z"/><path class="cls-5" d="M210.39,343.26c-.57-.53-1.56-1.55-2.37-2.29s-1.42-1.21-1.4-1.36.66,0,1.65,0a7.49,7.49,0,0,0,2.3-.12c0-.11-1.37-.26-2.69-.68a8.18,8.18,0,0,1-3.6-2.21,11.21,11.21,0,0,1-2.33-4.59c-.55-1.94-.86-4.26-1.1-5.49a3.85,3.85,0,0,0-1.1-2.23,16.8,16.8,0,0,1-2.58-4.32,18.25,18.25,0,0,1-1.19-6.17,4.78,4.78,0,0,1,1.2-3.77,5.36,5.36,0,0,1,2.77-1.28c.59-.05.43.29.51,1.17a25.43,25.43,0,0,0,.81,3.84,43.07,43.07,0,0,0,1.5,4.58,7.56,7.56,0,0,0,1.22,2.44,32.22,32.22,0,0,0-.9-3.71,54.84,54.84,0,0,1-1.44-7.3,14.82,14.82,0,0,1,.4-5.94,5.3,5.3,0,0,1,2.45-3.19,4.62,4.62,0,0,1,3.43-.43,3.31,3.31,0,0,1,1.64,1.52c.25.38.28.35.39,2.33s.29,6,.55,8.72a20.93,20.93,0,0,0,.79,4.66c.19.39.22-.36.56-3.34s1-8.21,2.21-11.6,3-4.93,4.81-5.72a6.34,6.34,0,0,1,4.82-.31,4.78,4.78,0,0,1,2.37,2.46,4,4,0,0,1,.57,2.32c-.09.68-.49,1.3-1.33,4.36s-2.1,8.57-2.72,12.23a25.11,25.11,0,0,0-.48,6.68c.11,1.19.29,1.75,1,1.84a6.64,6.64,0,0,0,3.6-1.27c1.65-1,3.73-2.59,5.55-3.14a4.41,4.41,0,0,1,4.44,1,5.54,5.54,0,0,1,1.53,4,5.76,5.76,0,0,1-2.15,4.53,35.51,35.51,0,0,1-6.63,4A37.73,37.73,0,0,1,224.2,338c-1.58.51-3.22.7-3.7.84s.2.23,1.18.23a18.51,18.51,0,0,1,2.57,0c.32.1-.3.41-1.3,1.47a47.63,47.63,0,0,0-3.12,3.91c-.75,1.05-.87,1.33-1.12,1.1a8.74,8.74,0,0,1-1.14-2.22,20.11,20.11,0,0,1-1.42-4.57,9.78,9.78,0,0,1,.39-4.47,13.57,13.57,0,0,1,1.8-3.64c.63-.88,1.19-1.3,1-1.2a12,12,0,0,0-1.83,1.5,9,9,0,0,0-1.85,2.72,11.48,11.48,0,0,0-.84,3.16c-.14,1-.14,2-.26,2.66a3.14,3.14,0,0,1-.8,1.63c-.44.51-1.06,1.1-1.44,1.51a7.84,7.84,0,0,0-.68.82,1,1,0,0,1-.41.35C211.12,343.81,211,343.78,210.39,343.26Z"/><path class="cls-2" d="M329.74,223.49c-.08-1.06-.2-2.08-.37-3-.77-4.39-2.55-7.62-5.05-9.51a11.13,11.13,0,0,0-9.16-1.76,20.07,20.07,0,0,0-9.87,5.47,29.7,29.7,0,0,0-5.3,7.8c1.88-.47,3.92-1,5.85-1.42a48.53,48.53,0,0,1,8.37-1.44,23.18,23.18,0,0,1,7.15.82,53.51,53.51,0,0,1,6.54,2.24C328.57,222.93,329.18,223.19,329.74,223.49Z"/><path class="cls-2" d="M337.6,383.34c-2.51-3.32-6.75-8.65-8.18-14.49a19.76,19.76,0,0,1,3.51-16.75,20,20,0,0,1,15.27-7.36c5.83-.05,11.65,2.62,18.18,9.23s13.77,17.17,19.1,24a114.46,114.46,0,0,0,11.43,12.73,32.19,32.19,0,0,1,5.92,7.32,15.8,15.8,0,0,1,1.83,6c0,1.06-.55.59-1.35-.28s-1.85-2.17-2.13-1.94.2,2-.19,4.66a20.69,20.69,0,0,1-5,10.25,64.16,64.16,0,0,1-11.6,10.2c-2.87,1.9-3.21,1.39-3.92.44a29.08,29.08,0,0,0-3-3.5,9.05,9.05,0,0,0-4.07-2.41,16.28,16.28,0,0,0-4.13-.41c-.42,0,.8.1,2.47.86a23.66,23.66,0,0,1,5.08,3.35c1.29,1.15,1.75,2,1.73,2.17s-.55-.39-2.34-.92a33.93,33.93,0,0,0-7.71-1.14,26,26,0,0,0-7.56.81c-2,.56-3.31,1.35-3.74,1.22s0-1.18,1-2.62a41,41,0,0,1,3.81-4.61c1.31-1.37,2.41-2.28,1.81-2.07a32.3,32.3,0,0,0-5,3.07c-2.11,1.53-4,3.25-4.94,4s-.88.38-.33-1.87a63.94,63.94,0,0,1,3.24-10.15,37.74,37.74,0,0,1,6.32-9.65,52.75,52.75,0,0,1,7.45-6.87,44.13,44.13,0,0,1,5.56-3.58c1.29-.7,1.93-1,1.29-.78a36.31,36.31,0,0,0-4.79,1.78,45,45,0,0,0-7.05,4c-2.19,1.54-4,3.18-4.82,3.7s-.82-.1-.63-1.39a45,45,0,0,1,1-5.27c.53-2,1.28-4.15,1-4.14s-1.54,2.14-2.37,4.11a20.8,20.8,0,0,0-1.46,5.71c-.25,1.92-.34,3.93-.58,4.74s-.65.43-3.36-2.48-7.74-8.32-10.64-11.68S340.11,386.66,337.6,383.34Z"/><path class="cls-3" d="M337.6,383.34c-.86-1.13-1.91-2.49-3-4-2.7-4.5-3.49-6.09-2.38-4.95s4.19,5.09,8.2,9.19a90.71,90.71,0,0,0,11.8,10.25c2.83,1.89,3.53,1.43,5-.07s3.72-4,5.66-5.68,3.58-2.46,3.86-1.78-.8,2.83-1.66,4.77-1.52,3.67-1.33,4.35,1.21.3,2.37.14a4.88,4.88,0,0,1,2.66.12c.09.1,0,.23-.19.48-1,.6-2.05,1.24-3,1.9-2.19,1.54-4,3.18-4.82,3.7s-.82-.1-.63-1.39a45,45,0,0,1,1-5.27c.53-2,1.28-4.15,1-4.14s-1.54,2.14-2.37,4.11a20.8,20.8,0,0,0-1.46,5.71c-.25,1.92-.34,3.93-.58,4.74s-.65.43-3.36-2.48-7.74-8.32-10.64-11.68-3.69-4.68-6.2-8Zm-.26-35.26c.76-.11,1.6-.2,2.48-.25a25.84,25.84,0,0,1,12,2.11c3.92,1.81,7.29,4.95,12.1,11s11.08,15,14.43,19.94,3.76,5.75,3.76,5.26-.42-2.31,0-2.2,1.76,2.18,2.86,4.7a29.37,29.37,0,0,1,2.24,7.91,12.71,12.71,0,0,1-.56,5.51c-.44,1.36-1,2.29-1.52,2.25s-1.17-1.08-2.2-.84-2.47,1.72-3.41,2.4-1.36.54-1.89-.11-1.2-1.83-1.2-1.24a17,17,0,0,0,1.15,4c.49,1.08.82.89,1.38.21s1.35-1.84,1.73-1.65.33,1.73.12,3.32a15,15,0,0,1-1.31,4.65,5.08,5.08,0,0,1-3.18,2.92c-1.38.28-3.06-.37-4.58-.84s-2.88-.75-3.18-1.22.44-1.12.93-1.47.73-.4-.7-.07-4.51,1-6.85,1.75-3.93,1.48-4.31.32.45-4.23,2.27-7.81c.69-1.35,1.52-2.78,2.39-4.16a37,37,0,0,0-5.5,8.69,63.94,63.94,0,0,0-3.24,10.15c-.55,2.25-.6,2.57.32,1.87s2.84-2.43,4.95-4a32.3,32.3,0,0,1,5-3.07c.6-.21-.5.7-1.81,2.07a41,41,0,0,0-3.81,4.61c-1,1.44-1.45,2.49-1,2.62s1.74-.66,3.74-1.22a25.67,25.67,0,0,1,7.56-.81,33.93,33.93,0,0,1,7.71,1.14c1.79.53,2.31,1.08,2.34.92s-.44-1-1.73-2.17A23.66,23.66,0,0,0,371.8,422c-1.67-.76-2.89-.83-2.47-.86a16.28,16.28,0,0,1,4.13.41,9.05,9.05,0,0,1,4.07,2.41,29.08,29.08,0,0,1,3,3.5c.71.95,1.05,1.46,3.92-.44a64.16,64.16,0,0,0,11.6-10.2,20.69,20.69,0,0,0,5-10.25c.38-2.68-.09-4.43.19-4.66s1.33,1.06,2.13,1.94,1.36,1.34,1.35.28a15.8,15.8,0,0,0-1.83-6,32.19,32.19,0,0,0-5.92-7.32A114.46,114.46,0,0,1,385.48,378c-5.33-6.86-12.57-17.42-19.1-24s-12.35-9.28-18.18-9.23A20.23,20.23,0,0,0,337.34,348.08Z"/><path class="cls-5" d="M354.18,430.46a11.06,11.06,0,0,0-3.18,6.67,17.73,17.73,0,0,0,1.18,8.06,11.33,11.33,0,0,0,4.65,5.92,19.5,19.5,0,0,0,8.48,2.84,4.51,4.51,0,0,0,4.95-3.16,23.59,23.59,0,0,0,1.25-8.26c-.08-2.24-.65-3-1.58-3.53a4.1,4.1,0,0,0-3.39-.42,6.52,6.52,0,0,0-3,2.82A18.83,18.83,0,0,0,362,445c-.38,1.06-.67,1.85-.76,1.53a16.9,16.9,0,0,1,.08-2.71,3.24,3.24,0,0,0-.18-2,2.79,2.79,0,0,0-1.91-1,25.25,25.25,0,0,1-2.73-.43c-.36-.2.26-.58,1.32-.74a14,14,0,0,1,3.38.05c.85.12,1.07.27,1.46-.13a10.22,10.22,0,0,1,1.95-2,6.32,6.32,0,0,1,6.55-.16c.59.3.74.45,1.35,0a13.38,13.38,0,0,1,2.92-1.83,8.3,8.3,0,0,1,3.49-.27,4.41,4.41,0,0,0,1.75,0c.35-.14.56-.47.54-1.14a9.62,9.62,0,0,0-.58-2.56,5.57,5.57,0,0,0-1.3-2.21,5.85,5.85,0,0,0-2.8-1.3,41.41,41.41,0,0,0-4.84-.8,10.93,10.93,0,0,0-3.25-.11c-.4.17.07.58.58,1.42a14.74,14.74,0,0,1,1.38,3.23,4.8,4.8,0,0,1,.35,2.12c-.12,0-.48-1-1.22-2.24a8.24,8.24,0,0,0-3.48-3.38,11,11,0,0,0-5.93-.43A10.7,10.7,0,0,0,354.18,430.46Z"/><path class="cls-5" d="M380.91,448.35a11,11,0,0,0,3.28-3.34,10.41,10.41,0,0,0,1-5.32c-.11-1.57-.58-2.54-1.39-3a3.26,3.26,0,0,0-2.71-.24c-.75.29-1.09.91-1.16,2.11s.13,3,.21,4.52A19.44,19.44,0,0,1,380,447c-.17,1.09-.46,1.93-.42,2.17S380,449.05,380.91,448.35Z"/><path class="cls-5" d="M371.7,452.38a14.38,14.38,0,0,0,3.89-2,8.48,8.48,0,0,0,3-4.64,14.77,14.77,0,0,0,.15-6.18c-.35-1.62-1-2.35-1.84-2.56a3.85,3.85,0,0,0-2.72.56,2.87,2.87,0,0,0-1.39,2.3,40.72,40.72,0,0,0,0,4.43,18.61,18.61,0,0,1-.41,4.2,10,10,0,0,1-1.07,2.71,16.31,16.31,0,0,0-.82,1.44C370.46,452.88,370.75,452.73,371.7,452.38Z"/><path class="cls-5" d="M382.38,429.77a11.58,11.58,0,0,1,4.59.44,8.93,8.93,0,0,1,3.94,2.89,6.49,6.49,0,0,1,1.45,3.21,4,4,0,0,1-.64,2.8,7.34,7.34,0,0,1-2.47,2.24,3.94,3.94,0,0,1-2.15.54c-.42-.05-.46-.29-.54-1.12s-.21-2.25-.41-3.21a2.94,2.94,0,0,0-.94-1.84c-.47-.41-1.15-.73-1.62-1.09a3,3,0,0,1-1-1.36c-.27-.62-.53-1.47-.71-2s-.27-.82-.34-1S381.42,429.86,382.38,429.77Z"/><path class="cls-5" d="M322.33,532.3c.27,2.18.09,5.13,1,7.06s2.89,2.83,6,3.53,7.32,1.17,12,2.49A129.91,129.91,0,0,1,355,550.44c3.77,1.57,6.12,2.53,7.53,2.53s1.9-1,1.78-2.21a7.57,7.57,0,0,0-2.14-4.17c-1.3-1.39-3.16-2.62-3.55-3.1s.69-.21,1.94.42a9.89,9.89,0,0,1,3.54,2.86c.87,1.23,1.2,2.71,2.14,3s2.46-.71,3.19-2.23a6.64,6.64,0,0,0-.12-5.29,7.12,7.12,0,0,0-4.19-3.73,35.34,35.34,0,0,0-5.37-1.16c-.74-.2.4-.38,1.77-.45a14.78,14.78,0,0,1,4.55.36,8.62,8.62,0,0,1,4.07,2.2c.91,1,1.18,2.24,1.48,2.42s.64-.69.65-2.05a10.63,10.63,0,0,0-1-4.65,6.75,6.75,0,0,0-3.48-3.21,9.62,9.62,0,0,0-6.1-.3,44.9,44.9,0,0,0-7.51,2.85c-1.75.8-2.05,1-1.67.65s1.43-1.06,2.27-1.66,1.48-1.06,1.21-1.16-1.45.13-3.66.26a68.8,68.8,0,0,1-7.73-.05,13.87,13.87,0,0,1-4.59-.95,3.11,3.11,0,0,1-1.87-1.57c-.9.09-1.84.16-2.82.22a81.26,81.26,0,0,1-13.5-.42A13.25,13.25,0,0,1,322.33,532.3Z"/><path class="cls-5" d="M278.83,532.3c-.28,2.18-.09,5.13-1,7.06s-2.89,2.83-6,3.53-7.32,1.17-12,2.49a131.6,131.6,0,0,0-13.64,5.06c-3.76,1.57-6.11,2.53-7.53,2.53s-1.89-1-1.77-2.21a7.54,7.54,0,0,1,2.13-4.17c1.3-1.39,3.17-2.62,3.56-3.1s-.69-.21-1.94.42a9.81,9.81,0,0,0-3.54,2.86c-.88,1.23-1.21,2.71-2.14,3s-2.47-.71-3.19-2.23a6.6,6.6,0,0,1,.12-5.29,7.1,7.1,0,0,1,4.18-3.73,35.16,35.16,0,0,1,5.38-1.16c.74-.2-.41-.38-1.78-.45a14.8,14.8,0,0,0-4.55.36,8.58,8.58,0,0,0-4.06,2.2c-.92,1-1.19,2.24-1.49,2.42s-.63-.69-.65-2.05a10.79,10.79,0,0,1,1-4.65,6.73,6.73,0,0,1,3.47-3.21,9.63,9.63,0,0,1,6.1-.3A44.7,44.7,0,0,1,247,534.5c1.74.8,2,1,1.67.65s-1.43-1.06-2.28-1.66-1.47-1-1.2-1.16,1.44.13,3.66.26a68.64,68.64,0,0,0,7.72-.05,13.8,13.8,0,0,0,4.59-.95,2.77,2.77,0,0,0,2.07-2.38,9.69,9.69,0,0,0-.53-3.27c2.65.33,5.52.59,8.35.72,3.28.16,6.51.15,9.57.08-.09.24-.19.49-.3.74A15.72,15.72,0,0,0,278.83,532.3Z"/><path class="cls-1" d="M339.58,257.68c3.95,0,7.17-3.88,7.17-8.63s-3.22-8.64-7.17-8.64-7.16,3.88-7.16,8.64S335.64,257.68,339.58,257.68Z"/><path class="cls-6" d="M343.7,248.6a3.91,3.91,0,1,0-3.91-3.9A3.91,3.91,0,0,0,343.7,248.6Z"/><circle class="cls-7" cx="338.41" cy="249.99" r="1.85"/><path class="cls-8" d="M252.42,363.64c6.31-5,14.26-7.15,22.63-6.87s17.16,3,22.35,10.66,6.78,20.29,7,34.78-1,30.86-8.74,40.54-21.93,12.67-32.49,12.44-17.49-3.7-21.89-10.85-6.26-18-6.59-28.61a89.74,89.74,0,0,1,3.84-30.11C241.43,376.5,246.11,368.64,252.42,363.64Z"/><path class="cls-1" d="M337.08,285a11,11,0,0,1,2.12,4.08,36,36,0,0,1,1.63,9.33,18.77,18.77,0,0,1-2.27,10.08,19.79,19.79,0,0,1-10.43,9.23c-5.35,2.06-12.8,2.5-17.5,2.7s-6.64.16-7,0,1-.45,3.18-1.19a40.64,40.64,0,0,0,8.47-3.9,48.66,48.66,0,0,0,8.33-6.78,39.55,39.55,0,0,0,4.8-5.84,38,38,0,0,0,3.67-6.34,69.46,69.46,0,0,0,2.81-7.64,23.7,23.7,0,0,0,.86-3.35c.09-.57.12-.87.28-1S336.53,284.39,337.08,285Z"/><path class="cls-6" d="M336.67,288.1a8.47,8.47,0,0,1,1,3.15,17.61,17.61,0,0,1-.12,5.15,24,24,0,0,1-1.47,5,20.67,20.67,0,0,0-1.26,3.15,11.15,11.15,0,0,0,1.91-2.52c.79-1.24,1.35-2.36,1.65-2.82s.35-.25.32.55a19.66,19.66,0,0,1-.62,3.95,17,17,0,0,1-2.63,5.74,17.87,17.87,0,0,1-5.17,4.36,27.33,27.33,0,0,1-6.17,2.76,40.81,40.81,0,0,1-7.15,1.32,50,50,0,0,1-6.57.41c-1-.08-.11-.45,2.12-1.45a57.33,57.33,0,0,0,8.75-4.65,26.39,26.39,0,0,0,7.43-7.71A75.57,75.57,0,0,0,334.3,294a26.76,26.76,0,0,0,1.74-5C336.25,288.09,336.37,287.69,336.67,288.1Z"/><path class="cls-6" d="M278.57,276.58a66,66,0,0,1,13.09-3.88,43.44,43.44,0,0,1,13.77-.14,27,27,0,0,1,7.51,2.06c.32.29-2.2-.29-6.13-.48a75.73,75.73,0,0,0-15,.95c-5.77.93-12,2.58-14.61,3S275.53,277.84,278.57,276.58Z"/><path class="cls-6" d="M279.77,290.39a67.6,67.6,0,0,1,13.81,0,42.34,42.34,0,0,1,13.09,3.77,25,25,0,0,1,6.36,4.08c.2.37-2-.89-5.63-2.18a73.18,73.18,0,0,0-14.58-3.37c-5.8-.76-12.29-1-14.94-1.28S276.44,290.72,279.77,290.39Z"/><path class="cls-6" d="M279.89,284.58a67.1,67.1,0,0,1,13.5-2.54,43.69,43.69,0,0,1,13.7,1.24,26.62,26.62,0,0,1,7.19,2.81c.29.32-2.14-.51-6-1.09a75.63,75.63,0,0,0-15.06-.57c-5.85.34-12.25,1.36-14.91,1.55S276.71,285.52,279.89,284.58Z"/><path class="cls-6" d="M254.16,276.58a65.77,65.77,0,0,0-13.09-3.88,43.44,43.44,0,0,0-13.77-.14,26.72,26.72,0,0,0-7.5,2.06c-.33.29,2.2-.29,6.12-.48a75.87,75.87,0,0,1,15,.95c5.77.93,12,2.58,14.61,3S257.2,277.84,254.16,276.58Z"/><path class="cls-6" d="M253,290.39a67.6,67.6,0,0,0-13.81,0,42.34,42.34,0,0,0-13.09,3.77,24.58,24.58,0,0,0-6.35,4.08c-.21.37,2-.89,5.62-2.18a73.35,73.35,0,0,1,14.58-3.37c5.81-.76,12.3-1,14.94-1.28S256.3,290.72,253,290.39Z"/><path class="cls-6" d="M252.85,284.58A67.21,67.21,0,0,0,239.34,282a43.72,43.72,0,0,0-13.7,1.24,26.62,26.62,0,0,0-7.19,2.81c-.28.32,2.15-.51,6-1.09a75.52,75.52,0,0,1,15.05-.57c5.86.34,12.25,1.36,14.91,1.55S256,285.52,252.85,284.58Z"/><path class="cls-1" d="M294.89,459.26a12.45,12.45,0,0,0,2.95,4.79c1.35,1.29,2.57,1.19,4.32-.12s4-3.83,5.59-4.58,2.34.28,3.37,1.45a10.38,10.38,0,0,0,3.48,2.92c1.19.45,2.31,0,4-1.28s3.86-3.51,3.79-3.88-2.41,1.07-4.46,1.59a6.65,6.65,0,0,1-5.33-.85c-1.5-.93-2.72-2.38-3.79-2.71s-2,.47-3.44,1.66S302,461,300.6,461.46s-2.29-.33-3.39-1.2S294.8,458.42,294.89,459.26Z"/><path class="cls-1" d="M235.15,489.13a9.64,9.64,0,0,0,1.36,3.2c.63.85,1.2.79,2-.08a30.21,30.21,0,0,1,2.59-3.06c.71-.5,1.08.19,1.56,1a5.82,5.82,0,0,0,1.61,1.95c.55.29,1.07,0,1.84-.86a9.58,9.58,0,0,0,1.75-2.59c0-.25-1.11.72-2.07,1.06a2.32,2.32,0,0,1-2.46-.56c-.7-.63-1.26-1.59-1.76-1.81s-.93.31-1.59,1.11a8.7,8.7,0,0,1-2.2,2.13c-.65.29-1.06-.21-1.57-.79S235.11,488.57,235.15,489.13Z"/></svg>